<svg width="181" height="36" viewBox="0 0 181 36" fill="none" xmlns="http://www.w3.org/2000/svg">
<path d="M5.40312 22.2715C4.92765 22.4647 4.42086 21.9097 4.69087 21.4733C7.94465 16.2141 11.1867 10.9477 14.4517 5.69418C14.6477 5.3787 15.1072 5.37975 15.3019 5.69605C18.3196 10.5975 21.3383 15.4977 24.3472 20.4035C24.6023 20.8193 24.1645 21.3336 23.7055 21.1687C22.0393 20.5702 20.3137 20.1438 18.56 19.8936C18.4064 19.8717 18.2708 19.7813 18.1934 19.6469C17.2199 17.9564 16.2734 16.2499 15.3204 14.5487C15.1332 14.2143 14.6549 14.207 14.4567 14.535C13.4816 16.1487 12.5011 17.7595 11.5224 19.3708C11.3006 19.7359 11.6106 20.1995 12.0355 20.1551C16.0751 19.7321 20.2873 20.6354 23.6583 22.936C25.7719 24.2758 27.5374 26.1517 28.7479 28.3407C28.9263 28.6633 28.6863 29.0484 28.3176 29.0487C26.353 29.0503 24.3883 29.0514 22.4237 29.0486C22.2061 29.0483 22.0146 28.9068 21.9429 28.7013C20.9158 25.7593 18.7731 23.1208 15.8283 21.966C12.485 20.629 8.70603 20.9298 5.40312 22.2715Z" fill="black"/>
<path d="M7.59033 23.51C10.5303 22.566 13.8643 22.556 16.6883 23.896C17.9083 24.464 19.0403 25.35 19.6103 26.6C17.6143 25.362 15.1283 24.844 12.8343 25.456C10.7363 25.87 8.97033 27.288 7.75433 29.002C5.41433 28.994 3.07633 29.01 0.736328 28.994C2.14433 26.336 4.73033 24.378 7.59033 23.51Z" fill="black"/>
<path d="M38.312 28H34.504L39.656 8.4H46.096L51.248 28H47.44L46.376 23.688H39.376L38.312 28ZM42.624 10.724L40.244 20.272H45.508L43.128 10.724H42.624ZM53.0341 21.112V20.664C53.0341 16.296 55.9181 13.72 59.3621 13.72C61.8821 13.72 63.0581 14.84 63.6741 15.792H64.1781V14.112H67.6501V30.464C67.6501 32.368 66.4181 33.6 64.5701 33.6H55.2741V30.52H63.3381C63.8421 30.52 64.1221 30.24 64.1221 29.68V26.068H63.6181C63.0581 26.992 61.9101 28.056 59.3621 28.056C55.9461 28.056 53.0341 25.48 53.0341 21.112ZM60.3701 24.976C62.5261 24.976 64.1781 23.548 64.1781 21.028V20.748C64.1781 18.228 62.5541 16.8 60.3701 16.8C58.1861 16.8 56.5621 18.228 56.5621 20.748V21.028C56.5621 23.548 58.2141 24.976 60.3701 24.976ZM77.8896 28.392C73.7176 28.392 70.8896 25.592 70.8896 21.224V20.888C70.8896 16.52 73.6896 13.72 77.8336 13.72C81.9216 13.72 84.5816 16.632 84.5816 20.888V22.092H74.4736C74.5576 23.996 76.0416 25.312 78.0016 25.312C79.9616 25.312 80.7736 24.304 81.2496 23.24L84.1336 24.752C83.3496 26.236 81.6976 28.392 77.8896 28.392ZM74.5016 19.46H80.9976C80.8296 17.864 79.6256 16.8 77.8056 16.8C75.9016 16.8 74.7536 17.864 74.5016 19.46ZM91.2497 28H87.7217V14.112H91.1937V15.932H91.6977C92.1457 14.98 93.2657 13.888 95.7577 13.888C99.0057 13.888 101.162 16.268 101.162 19.712V28H97.6337V19.992C97.6337 17.892 96.5697 16.856 94.6657 16.856C92.5097 16.856 91.2497 18.368 91.2497 20.944V28ZM111.668 28.392C107.132 28.392 103.968 25.872 103.968 21.616V20.832H107.608V21.616C107.608 23.968 109.148 25.144 111.668 25.144C114.188 25.144 115.448 24.024 115.448 22.456C115.448 20.832 114.02 20.272 111.5 19.712L110.856 19.572C106.796 18.676 104.416 17.304 104.416 13.72C104.416 10.136 107.132 8.008 111.332 8.008C115.532 8.008 118.584 10.136 118.584 14.392V15.232H114.944V14.392C114.944 12.152 113.572 11.256 111.332 11.256C109.092 11.256 108.056 12.152 108.056 13.608C108.056 15.064 109.148 15.764 111.5 16.268L112.144 16.408C116.316 17.304 119.088 18.76 119.088 22.344C119.088 25.928 116.204 28.392 111.668 28.392ZM125.484 28H121.956V8.4H125.484V15.82H125.988C126.436 14.924 127.528 13.888 129.992 13.888C133.24 13.888 135.396 16.268 135.396 19.712V28H131.868V19.992C131.868 17.892 130.804 16.856 128.9 16.856C126.744 16.856 125.484 18.368 125.484 20.944V28ZM143.522 28.392C140.554 28.392 138.314 26.796 138.314 23.94C138.314 21.084 140.554 19.6 143.69 19.6H147.498V18.816C147.498 17.528 146.714 16.576 144.922 16.576C143.158 16.576 142.374 17.472 142.122 18.732L138.874 17.64C139.546 15.54 141.366 13.72 144.978 13.72C148.618 13.72 150.914 15.596 150.914 19.068V24.248C150.914 24.808 151.194 25.088 151.698 25.088H152.818V28H150.466C149.094 28 148.086 27.272 148.086 26.152V26.124H147.554C147.302 26.824 146.434 28.392 143.522 28.392ZM144.138 25.536C146.098 25.536 147.498 24.36 147.498 22.512V22.232H143.942C142.626 22.232 141.842 22.82 141.842 23.828C141.842 24.836 142.626 25.536 144.138 25.536ZM158.926 28H155.398V14.112H158.87V15.68H159.374C159.766 14.56 160.774 14.056 162.062 14.056H163.742V17.192H162.006C160.214 17.192 158.926 18.144 158.926 20.104V28ZM170.027 28H166.499V8.4H170.027V19.236H170.531L175.123 14.112H179.715L173.303 20.832L179.939 28H175.403L170.531 22.484H170.027V28Z" fill="black"/>
</svg>
